<svg width="93" height="66" viewBox="0 0 93 66" fill="none" xmlns="http://www.w3.org/2000/svg">
<path d="M4.50598 8.61157C4.50598 7.78657 4.79948 7.08057 5.38648 6.49357C5.97448 5.90557 6.68098 5.61157 7.50598 5.61157L19.506 5.61157C20.331 5.61157 21.037 5.90557 21.624 6.49357C22.212 7.08057 22.506 7.78657 22.506 8.61157L22.506 32.6116C22.506 33.4366 22.212 34.1431 21.624 34.7311C21.037 35.3181 20.331 35.6116 19.506 35.6116L7.50598 35.6116C6.68098 35.6116 5.97448 35.3181 5.38648 34.7311C4.79948 34.1431 4.50598 33.4366 4.50598 32.6116L4.50598 8.61157ZM9.00598 14.6116C9.00598 15.0366 9.14998 15.3931 9.43798 15.6811C9.72498 15.9681 10.081 16.1116 10.506 16.1116L12.006 16.1116L12.006 17.6116C12.006 18.0366 12.15 18.3931 12.438 18.6811C12.725 18.9681 13.081 19.1116 13.506 19.1116C13.931 19.1116 14.2875 18.9681 14.5755 18.6811C14.8625 18.3931 15.006 18.0366 15.006 17.6116L15.006 16.1116L16.506 16.1116C16.931 16.1116 17.2875 15.9681 17.5755 15.6811C17.8625 15.3931 18.006 15.0366 18.006 14.6116C18.006 14.1866 17.8625 13.8301 17.5755 13.5421C17.2875 13.2551 16.931 13.1116 16.506 13.1116L15.006 13.1116L15.006 11.6116C15.006 11.1866 14.8625 10.8301 14.5755 10.5421C14.2875 10.2551 13.931 10.1116 13.506 10.1116C13.081 10.1116 12.725 10.2551 12.438 10.5421C12.15 10.8301 12.006 11.1866 12.006 11.6116L12.006 13.1116L10.506 13.1116C10.081 13.1116 9.72498 13.2551 9.43798 13.5421C9.14998 13.8301 9.00598 14.1866 9.00598 14.6116ZM9.00598 24.3616C9.00598 24.9866 9.22498 25.5176 9.66298 25.9546C10.1 26.3926 10.631 26.6116 11.256 26.6116C11.881 26.6116 12.412 26.3926 12.849 25.9546C13.287 25.5176 13.506 24.9866 13.506 24.3616C13.506 23.7366 13.287 23.2056 12.849 22.7686C12.412 22.3306 11.881 22.1116 11.256 22.1116C10.631 22.1116 10.1 22.3306 9.66298 22.7686C9.22498 23.2056 9.00598 23.7366 9.00598 24.3616ZM13.506 28.8616C13.506 29.4866 13.725 30.0176 14.163 30.4546C14.6 30.8926 15.131 31.1116 15.756 31.1116C16.381 31.1116 16.912 30.8926 17.349 30.4546C17.787 30.0176 18.006 29.4866 18.006 28.8616C18.006 28.2366 17.787 27.7056 17.349 27.2686C16.912 26.8306 16.381 26.6116 15.756 26.6116C15.131 26.6116 14.6 26.8306 14.163 27.2686C13.725 27.7056 13.506 28.2366 13.506 28.8616Z" fill="#2B788B"/>
<path d="M47.1936 30.3884C55.8603 29.9084 62.5803 29.3751 67.3536 28.7884C66.9003 30.1751 66.5536 31.6418 66.3136 33.1884C66.0736 34.7351 65.9536 36.1351 65.9536 37.3884H37.3536L37.3136 36.5484C37.3136 33.9351 38.0736 31.6684 39.5936 29.7484C41.1403 27.8284 43.2869 26.0551 46.0336 24.4284C46.8336 23.9484 48.0869 23.3351 49.7936 22.5884C52.0069 21.6284 53.7136 20.7884 54.9136 20.0684C56.1136 19.3218 56.7136 18.5884 56.7136 17.8684C56.7136 16.9618 56.3403 16.2418 55.5936 15.7084C54.8469 15.1751 53.6869 14.9084 52.1136 14.9084C50.3803 14.9084 49.0603 15.3484 48.1536 16.2284C47.2736 17.1084 46.8336 18.2284 46.8336 19.5884C46.8336 20.0151 46.8736 20.4551 46.9536 20.9084C43.5936 20.4818 40.3269 20.1884 37.1536 20.0284C37.1536 17.7618 37.7403 15.7218 38.9136 13.9084C40.1136 12.0684 41.9003 10.6151 44.2736 9.54843C46.6736 8.48176 49.6069 7.94843 53.0736 7.94843C56.2469 7.94843 58.8869 8.38843 60.9936 9.26843C63.1269 10.1218 64.6869 11.2151 65.6736 12.5484C66.6869 13.8551 67.1936 15.2018 67.1936 16.5884C67.1936 18.1884 66.8336 19.5618 66.1136 20.7084C65.4203 21.8551 64.4069 22.8818 63.0736 23.7884C61.7669 24.6684 60.0069 25.6284 57.7936 26.6684C57.4736 26.8284 56.9536 27.0151 56.2336 27.2284C55.5136 27.4151 55.0603 27.5351 54.8736 27.5884C52.9803 28.1484 51.4736 28.6151 50.3536 28.9884C49.2336 29.3618 48.1803 29.8284 47.1936 30.3884Z" fill="black"/>
<path d="M83.512 19.8684H90.632V27.6684H83.512V34.8284H75.712V27.6684H68.552V19.8684H75.712V12.7084H83.512V19.8684Z" fill="#2B788B"/>
<path d="M12.3456 60.3884L12.3296 52.9644L8.64959 59.1084H7.72159L4.04159 53.0604V60.3884H2.05759V49.1884H3.76959L8.21759 56.6124L12.5856 49.1884H14.2976L14.3136 60.3884H12.3456ZM16.5068 51.8444H18.5068V60.3884H16.5068V51.8444ZM17.5148 50.4364C17.1522 50.4364 16.8482 50.3244 16.6028 50.1004C16.3575 49.8658 16.2348 49.5778 16.2348 49.2364C16.2348 48.8951 16.3575 48.6124 16.6028 48.3884C16.8482 48.1538 17.1522 48.0364 17.5148 48.0364C17.8775 48.0364 18.1815 48.1484 18.4268 48.3724C18.6722 48.5858 18.7948 48.8578 18.7948 49.1884C18.7948 49.5404 18.6722 49.8391 18.4268 50.0844C18.1922 50.3191 17.8882 50.4364 17.5148 50.4364ZM25.3398 51.7484C26.4172 51.7484 27.2812 52.0631 27.9318 52.6924C28.5825 53.3218 28.9078 54.2551 28.9078 55.4924V60.3884H26.9078V55.7484C26.9078 55.0018 26.7318 54.4418 26.3798 54.0684C26.0278 53.6844 25.5265 53.4924 24.8758 53.4924C24.1398 53.4924 23.5585 53.7164 23.1318 54.1644C22.7052 54.6018 22.4918 55.2364 22.4918 56.0684V60.3884H20.4918V51.8444H22.3958V52.9484C22.7265 52.5538 23.1425 52.2551 23.6438 52.0524C24.1452 51.8498 24.7105 51.7484 25.3398 51.7484ZM30.805 51.8444H32.805V60.3884H30.805V51.8444ZM31.813 50.4364C31.4503 50.4364 31.1463 50.3244 30.901 50.1004C30.6556 49.8658 30.533 49.5778 30.533 49.2364C30.533 48.8951 30.6556 48.6124 30.901 48.3884C31.1463 48.1538 31.4503 48.0364 31.813 48.0364C32.1756 48.0364 32.4796 48.1484 32.725 48.3724C32.9703 48.5858 33.093 48.8578 33.093 49.1884C33.093 49.5404 32.9703 49.8391 32.725 50.0844C32.4903 50.3191 32.1863 50.4364 31.813 50.4364ZM34.358 55.1084H38.758V56.7724H34.358V55.1084ZM48.9425 51.8444V59.0924C48.9425 62.1004 47.4065 63.6044 44.3345 63.6044C43.5131 63.6044 42.7345 63.4978 41.9985 63.2844C41.2625 63.0818 40.6545 62.7831 40.1745 62.3884L41.0705 60.8844C41.4438 61.1938 41.9131 61.4391 42.4785 61.6204C43.0545 61.8124 43.6358 61.9084 44.2225 61.9084C45.1611 61.9084 45.8491 61.6951 46.2865 61.2684C46.7238 60.8418 46.9425 60.1911 46.9425 59.3164V58.8684C46.6011 59.2418 46.1851 59.5244 45.6945 59.7164C45.2038 59.9084 44.6651 60.0044 44.0785 60.0044C43.2678 60.0044 42.5318 59.8338 41.8705 59.4924C41.2198 59.1404 40.7025 58.6498 40.3185 58.0204C39.9451 57.3911 39.7585 56.6711 39.7585 55.8604C39.7585 55.0498 39.9451 54.3351 40.3185 53.7164C40.7025 53.0871 41.2198 52.6018 41.8705 52.2604C42.5318 51.9191 43.2678 51.7484 44.0785 51.7484C44.6971 51.7484 45.2571 51.8498 45.7585 52.0524C46.2705 52.2551 46.6971 52.5644 47.0385 52.9804V51.8444H48.9425ZM44.3825 58.3084C45.1398 58.3084 45.7585 58.0844 46.2385 57.6364C46.7291 57.1778 46.9745 56.5858 46.9745 55.8604C46.9745 55.1458 46.7291 54.5644 46.2385 54.1164C45.7585 53.6684 45.1398 53.4444 44.3825 53.4444C43.6145 53.4444 42.9851 53.6684 42.4945 54.1164C42.0145 54.5644 41.7745 55.1458 41.7745 55.8604C41.7745 56.5858 42.0145 57.1778 42.4945 57.6364C42.9851 58.0844 43.6145 58.3084 44.3825 58.3084ZM54.1958 51.7484C55.4545 51.7484 56.4145 52.0524 57.0758 52.6604C57.7478 53.2578 58.0838 54.1644 58.0838 55.3804V60.3884H56.1958V59.3484C55.9505 59.7218 55.5985 60.0098 55.1398 60.2124C54.6918 60.4044 54.1478 60.5004 53.5078 60.5004C52.8678 60.5004 52.3078 60.3938 51.8278 60.1804C51.3478 59.9564 50.9745 59.6524 50.7078 59.2684C50.4518 58.8738 50.3238 58.4311 50.3238 57.9404C50.3238 57.1724 50.6065 56.5591 51.1718 56.1004C51.7478 55.6311 52.6492 55.3964 53.8758 55.3964H56.0838V55.2684C56.0838 54.6711 55.9025 54.2124 55.5398 53.8924C55.1878 53.5724 54.6598 53.4124 53.9558 53.4124C53.4758 53.4124 53.0012 53.4871 52.5318 53.6364C52.0732 53.7858 51.6838 53.9938 51.3638 54.2604L50.5798 52.8044C51.0278 52.4631 51.5665 52.2018 52.1958 52.0204C52.8252 51.8391 53.4918 51.7484 54.1958 51.7484ZM53.9238 59.0444C54.4252 59.0444 54.8678 58.9324 55.2518 58.7084C55.6465 58.4738 55.9238 58.1431 56.0838 57.7164V56.7244H54.0198C52.8678 56.7244 52.2918 57.1031 52.2918 57.8604C52.2918 58.2231 52.4358 58.5111 52.7238 58.7244C53.0118 58.9378 53.4118 59.0444 53.9238 59.0444ZM70.7946 51.7484C71.8719 51.7484 72.7253 52.0631 73.3546 52.6924C73.9839 53.3111 74.2986 54.2444 74.2986 55.4924V60.3884H72.2986V55.7484C72.2986 55.0018 72.1333 54.4418 71.8026 54.0684C71.4719 53.6844 70.9973 53.4924 70.3786 53.4924C69.7066 53.4924 69.1679 53.7164 68.7626 54.1644C68.3573 54.6018 68.1546 55.2311 68.1546 56.0524V60.3884H66.1546V55.7484C66.1546 55.0018 65.9893 54.4418 65.6586 54.0684C65.3279 53.6844 64.8533 53.4924 64.2346 53.4924C63.5519 53.4924 63.0079 53.7111 62.6026 54.1484C62.2079 54.5858 62.0106 55.2204 62.0106 56.0524V60.3884H60.0106V51.8444H61.9146V52.9324C62.2346 52.5484 62.6346 52.2551 63.1146 52.0524C63.5946 51.8498 64.1279 51.7484 64.7146 51.7484C65.3546 51.7484 65.9199 51.8711 66.4106 52.1164C66.9119 52.3511 67.3066 52.7031 67.5946 53.1724C67.9466 52.7244 68.3999 52.3778 68.9546 52.1324C69.5093 51.8764 70.1226 51.7484 70.7946 51.7484ZM84.3245 56.1644C84.3245 56.3031 84.3138 56.5004 84.2925 56.7564H77.5885C77.7058 57.3858 78.0098 57.8871 78.5005 58.2604C79.0018 58.6231 79.6205 58.8044 80.3565 58.8044C81.2951 58.8044 82.0685 58.4951 82.6765 57.8764L83.7485 59.1084C83.3645 59.5671 82.8791 59.9138 82.2925 60.1484C81.7058 60.3831 81.0445 60.5004 80.3085 60.5004C79.3698 60.5004 78.5431 60.3138 77.8285 59.9404C77.1138 59.5671 76.5591 59.0498 76.1645 58.3884C75.7805 57.7164 75.5885 56.9591 75.5885 56.1164C75.5885 55.2844 75.7751 54.5378 76.1485 53.8764C76.5325 53.2044 77.0605 52.6818 77.7325 52.3084C78.4045 51.9351 79.1618 51.7484 80.0045 51.7484C80.8365 51.7484 81.5778 51.9351 82.2285 52.3084C82.8898 52.6711 83.4018 53.1884 83.7645 53.8604C84.1378 54.5218 84.3245 55.2898 84.3245 56.1644ZM80.0045 53.3484C79.3645 53.3484 78.8205 53.5404 78.3725 53.9244C77.9351 54.2978 77.6685 54.7991 77.5725 55.4284H82.4205C82.3351 54.8098 82.0738 54.3084 81.6365 53.9244C81.1991 53.5404 80.6551 53.3484 80.0045 53.3484ZM88.2456 60.5004C87.5523 60.5004 86.8749 60.4098 86.2136 60.2284C85.5523 60.0471 85.0243 59.8178 84.6296 59.5404L85.3976 58.0204C85.7816 58.2764 86.2403 58.4844 86.7736 58.6444C87.3176 58.7938 87.8509 58.8684 88.3736 58.8684C89.5683 58.8684 90.1656 58.5538 90.1656 57.9244C90.1656 57.6258 90.0109 57.4178 89.7016 57.3004C89.4029 57.1831 88.9176 57.0711 88.2456 56.9644C87.5416 56.8578 86.9656 56.7351 86.5176 56.5964C86.0803 56.4578 85.6963 56.2178 85.3656 55.8764C85.0456 55.5244 84.8856 55.0391 84.8856 54.4204C84.8856 53.6098 85.2216 52.9644 85.8936 52.4844C86.5763 51.9938 87.4936 51.7484 88.6456 51.7484C89.2323 51.7484 89.8189 51.8178 90.4056 51.9564C90.9923 52.0844 91.4723 52.2604 91.8456 52.4844L91.0776 54.0044C90.3523 53.5778 89.5363 53.3644 88.6296 53.3644C88.0429 53.3644 87.5949 53.4551 87.2856 53.6364C86.9869 53.8071 86.8376 54.0364 86.8376 54.3244C86.8376 54.6444 86.9976 54.8738 87.3176 55.0124C87.6483 55.1404 88.1549 55.2631 88.8376 55.3804C89.5203 55.4871 90.0803 55.6098 90.5176 55.7484C90.9549 55.8871 91.3283 56.1218 91.6376 56.4524C91.9576 56.7831 92.1176 57.2524 92.1176 57.8604C92.1176 58.6604 91.7709 59.3004 91.0776 59.7804C90.3843 60.2604 89.4403 60.5004 88.2456 60.5004Z" fill="#585858"/>
</svg>
