<svg width="163" height="66" viewBox="0 0 163 66" fill="none" xmlns="http://www.w3.org/2000/svg">
<path d="M23.9585 5.66031C23.9221 5.57896 23.863 5.50994 23.7882 5.46167C23.7134 5.41339 23.6262 5.38795 23.5373 5.38843H10.4995C10.4212 5.38857 10.3441 5.40837 10.2755 5.44605C10.2068 5.48372 10.1486 5.53805 10.1064 5.60406L0.0822939 21.5415C0.0340351 21.6109 0.00583936 21.6923 0.000813382 21.7768C-0.00421259 21.8612 0.0141262 21.9454 0.0538094 22.02C0.0934926 22.0947 0.15298 22.1569 0.225716 22.1998C0.298451 22.2428 0.381612 22.2648 0.466035 22.2634H7.64479L1.30839 34.6853C1.27201 34.7592 1.25491 34.8411 1.25869 34.9234C1.26247 35.0056 1.287 35.0856 1.33 35.1558C1.37299 35.2261 1.43305 35.2842 1.50456 35.3249C1.57607 35.3656 1.6567 35.3874 1.73893 35.3884H4.54679C4.61175 35.3889 4.67608 35.3757 4.7357 35.3499C4.79532 35.3241 4.84892 35.2861 4.89309 35.2384L21.3378 17.4353C21.4031 17.3687 21.447 17.284 21.4639 17.1922C21.4809 17.1003 21.47 17.0055 21.4328 16.9199C21.3956 16.8343 21.3337 16.7618 21.2551 16.7116C21.1765 16.6615 21.0847 16.636 20.9915 16.6384H14.6832L23.8836 6.15718C23.9429 6.0906 23.9816 6.00815 23.9949 5.91991C24.0082 5.83167 23.9955 5.74146 23.9585 5.66031Z" fill="#2B788B"/>
<path d="M55.28 17.5484C57.3867 17.5484 59.3067 17.9884 61.04 18.8684C62.7733 19.7218 64.1333 20.8818 65.12 22.3484C66.1333 23.8151 66.64 25.3884 66.64 27.0684C66.64 29.2551 65.9467 31.1618 64.56 32.7884C63.1733 34.4151 61.2933 35.6551 58.92 36.5084C56.5467 37.3618 53.8933 37.7884 50.96 37.7884C47.9733 37.7884 45.3067 37.2018 42.96 36.0284C40.64 34.8284 38.8267 33.1751 37.52 31.0684C36.24 28.9618 35.6 26.5618 35.6 23.8684C35.6 18.5084 37.08 14.5218 40.04 11.9084C43.0267 9.26843 47.04 7.94843 52.08 7.94843C58.2133 7.94843 63.0533 9.49509 66.6 12.5884C65 14.2951 63.5333 16.1751 62.2 18.2284C61.1333 17.4284 59.6267 16.7884 57.68 16.3084C55.76 15.8018 54.04 15.5484 52.52 15.5484C50.2 15.5484 48.2533 16.1351 46.68 17.3084C45.1067 18.4551 44.1467 20.1084 43.8 22.2684C43.7733 22.4018 43.76 22.5884 43.76 22.8284C45.04 20.9618 46.72 19.6151 48.8 18.7884C50.9067 17.9618 53.0667 17.5484 55.28 17.5484ZM51.36 30.1884C52.3733 30.1884 53.32 30.0551 54.2 29.7884C55.08 29.4951 55.7733 29.1084 56.28 28.6284C56.7867 28.1218 57.04 27.5884 57.04 27.0284C57.04 26.1484 56.48 25.4018 55.36 24.7884C54.2667 24.1484 52.9333 23.8284 51.36 23.8284C49.7867 23.8284 48.44 24.1484 47.32 24.7884C46.2267 25.4018 45.68 26.1484 45.68 27.0284C45.68 27.5884 45.9333 28.1218 46.44 28.6284C46.9467 29.1084 47.64 29.4951 48.52 29.7884C49.4 30.0551 50.3467 30.1884 51.36 30.1884ZM85.8178 37.7884C80.0845 37.7884 75.8578 36.4684 73.1378 33.8284C70.4178 31.1884 69.0578 27.5218 69.0578 22.8284C69.0578 18.1618 70.4178 14.5218 73.1378 11.9084C75.8845 9.26843 80.1111 7.94843 85.8178 7.94843C91.5245 7.94843 95.7378 9.26843 98.4578 11.9084C101.178 14.5218 102.538 18.1618 102.538 22.8284C102.538 27.5218 101.178 31.1884 98.4578 33.8284C95.7378 36.4684 91.5245 37.7884 85.8178 37.7884ZM85.8578 30.7884C88.3111 30.7884 90.0978 30.0418 91.2178 28.5484C92.3378 27.0284 92.8978 25.1218 92.8978 22.8284C92.8978 20.5618 92.3378 18.6818 91.2178 17.1884C90.0978 15.6684 88.3111 14.9084 85.8578 14.9084C83.3245 14.9084 81.4845 15.6684 80.3378 17.1884C79.2178 18.6818 78.6578 20.5618 78.6578 22.8284C78.6578 25.0951 79.2178 26.9884 80.3378 28.5084C81.4845 30.0284 83.3245 30.7884 85.8578 30.7884ZM121.698 37.7884C115.964 37.7884 111.738 36.4684 109.018 33.8284C106.298 31.1884 104.938 27.5218 104.938 22.8284C104.938 18.1618 106.298 14.5218 109.018 11.9084C111.764 9.26843 115.991 7.94843 121.698 7.94843C127.404 7.94843 131.618 9.26843 134.338 11.9084C137.058 14.5218 138.418 18.1618 138.418 22.8284C138.418 27.5218 137.058 31.1884 134.338 33.8284C131.618 36.4684 127.404 37.7884 121.698 37.7884ZM121.738 30.7884C124.191 30.7884 125.978 30.0418 127.098 28.5484C128.218 27.0284 128.778 25.1218 128.778 22.8284C128.778 20.5618 128.218 18.6818 127.098 17.1884C125.978 15.6684 124.191 14.9084 121.738 14.9084C119.204 14.9084 117.364 15.6684 116.218 17.1884C115.098 18.6818 114.538 20.5618 114.538 22.8284C114.538 25.0951 115.098 26.9884 116.218 28.5084C117.364 30.0284 119.204 30.7884 121.738 30.7884Z" fill="black"/>
<path d="M154.577 19.8684H161.697V27.6684H154.577V34.8284H146.777V27.6684H139.617V19.8684H146.777V12.7084H154.577V19.8684Z" fill="#2B788B"/>
<path d="M31.612 49.1884C32.5827 49.1884 33.4253 49.3484 34.14 49.6684C34.8653 49.9884 35.42 50.4471 35.804 51.0444C36.188 51.6418 36.38 52.3511 36.38 53.1724C36.38 53.9831 36.188 54.6924 35.804 55.3004C35.42 55.8978 34.8653 56.3564 34.14 56.6764C33.4253 56.9964 32.5827 57.1564 31.612 57.1564H29.084V60.3884H27.004V49.1884H31.612ZM31.516 55.3964C32.4227 55.3964 33.1107 55.2044 33.58 54.8204C34.0493 54.4364 34.284 53.8871 34.284 53.1724C34.284 52.4578 34.0493 51.9084 33.58 51.5244C33.1107 51.1404 32.4227 50.9484 31.516 50.9484H29.084V55.3964H31.516ZM41.4339 60.5004C40.5699 60.5004 39.7912 60.3138 39.0979 59.9404C38.4045 59.5671 37.8605 59.0498 37.4659 58.3884C37.0819 57.7164 36.8899 56.9591 36.8899 56.1164C36.8899 55.2738 37.0819 54.5218 37.4659 53.8604C37.8605 53.1991 38.4045 52.6818 39.0979 52.3084C39.7912 51.9351 40.5699 51.7484 41.4339 51.7484C42.3085 51.7484 43.0925 51.9351 43.7859 52.3084C44.4792 52.6818 45.0179 53.1991 45.4019 53.8604C45.7965 54.5218 45.9939 55.2738 45.9939 56.1164C45.9939 56.9591 45.7965 57.7164 45.4019 58.3884C45.0179 59.0498 44.4792 59.5671 43.7859 59.9404C43.0925 60.3138 42.3085 60.5004 41.4339 60.5004ZM41.4339 58.7884C42.1699 58.7884 42.7779 58.5431 43.2579 58.0524C43.7379 57.5618 43.9779 56.9164 43.9779 56.1164C43.9779 55.3164 43.7379 54.6711 43.2579 54.1804C42.7779 53.6898 42.1699 53.4444 41.4339 53.4444C40.6979 53.4444 40.0899 53.6898 39.6099 54.1804C39.1405 54.6711 38.9059 55.3164 38.9059 56.1164C38.9059 56.9164 39.1405 57.5618 39.6099 58.0524C40.0899 58.5431 40.6979 58.7884 41.4339 58.7884ZM52.0024 51.7484C52.8344 51.7484 53.5757 51.9298 54.2264 52.2924C54.8877 52.6551 55.405 53.1671 55.7784 53.8284C56.1517 54.4898 56.3384 55.2524 56.3384 56.1164C56.3384 56.9804 56.1517 57.7484 55.7784 58.4204C55.405 59.0818 54.8877 59.5938 54.2264 59.9564C53.5757 60.3191 52.8344 60.5004 52.0024 60.5004C50.8504 60.5004 49.9384 60.1164 49.2664 59.3484V63.4924H47.2664V51.8444H49.1704V52.9644C49.501 52.5591 49.9064 52.2551 50.3864 52.0524C50.877 51.8498 51.4157 51.7484 52.0024 51.7484ZM51.7784 58.7884C52.5144 58.7884 53.117 58.5431 53.5864 58.0524C54.0664 57.5618 54.3064 56.9164 54.3064 56.1164C54.3064 55.3164 54.0664 54.6711 53.5864 54.1804C53.117 53.6898 52.5144 53.4444 51.7784 53.4444C51.2984 53.4444 50.8664 53.5564 50.4824 53.7804C50.0984 53.9938 49.7944 54.3031 49.5704 54.7084C49.3464 55.1138 49.2344 55.5831 49.2344 56.1164C49.2344 56.6498 49.3464 57.1191 49.5704 57.5244C49.7944 57.9298 50.0984 58.2444 50.4824 58.4684C50.8664 58.6818 51.2984 58.7884 51.7784 58.7884ZM65.8671 51.8444V60.3884H63.9631V59.3004C63.6431 59.6844 63.2431 59.9831 62.7631 60.1964C62.2831 60.3991 61.7658 60.5004 61.2111 60.5004C60.0698 60.5004 59.1685 60.1858 58.5071 59.5564C57.8565 58.9164 57.5311 57.9724 57.5311 56.7244V51.8444H59.5311V56.4524C59.5311 57.2204 59.7018 57.7964 60.0431 58.1804C60.3951 58.5538 60.8911 58.7404 61.5311 58.7404C62.2458 58.7404 62.8111 58.5218 63.2271 58.0844C63.6538 57.6364 63.8671 56.9964 63.8671 56.1644V51.8444H65.8671ZM67.8457 48.5164H69.8457V60.3884H67.8457V48.5164ZM75.0947 51.7484C76.3534 51.7484 77.3134 52.0524 77.9747 52.6604C78.6467 53.2578 78.9827 54.1644 78.9827 55.3804V60.3884H77.0947V59.3484C76.8494 59.7218 76.4974 60.0098 76.0387 60.2124C75.5907 60.4044 75.0467 60.5004 74.4067 60.5004C73.7667 60.5004 73.2067 60.3938 72.7267 60.1804C72.2467 59.9564 71.8734 59.6524 71.6067 59.2684C71.3507 58.8738 71.2227 58.4311 71.2227 57.9404C71.2227 57.1724 71.5054 56.5591 72.0707 56.1004C72.6467 55.6311 73.5481 55.3964 74.7747 55.3964H76.9827V55.2684C76.9827 54.6711 76.8014 54.2124 76.4387 53.8924C76.0867 53.5724 75.5587 53.4124 74.8547 53.4124C74.3747 53.4124 73.9001 53.4871 73.4307 53.6364C72.9721 53.7858 72.5827 53.9938 72.2627 54.2604L71.4787 52.8044C71.9267 52.4631 72.4654 52.2018 73.0947 52.0204C73.7241 51.8391 74.3907 51.7484 75.0947 51.7484ZM74.8227 59.0444C75.3241 59.0444 75.7667 58.9324 76.1507 58.7084C76.5454 58.4738 76.8227 58.1431 76.9827 57.7164V56.7244H74.9187C73.7667 56.7244 73.1907 57.1031 73.1907 57.8604C73.1907 58.2231 73.3347 58.5111 73.6227 58.7244C73.9107 58.9378 74.3107 59.0444 74.8227 59.0444ZM82.8135 53.0924C83.3895 52.1964 84.4028 51.7484 85.8535 51.7484V53.6524C85.6828 53.6204 85.5282 53.6044 85.3895 53.6044C84.6108 53.6044 84.0028 53.8338 83.5655 54.2924C83.1282 54.7404 82.9095 55.3911 82.9095 56.2444V60.3884H80.9095V51.8444H82.8135V53.0924ZM104.098 51.8444L100.946 60.3884H99.0261L96.8181 54.5004L94.5781 60.3884H92.6581L89.5221 51.8444H91.4101L93.6661 58.1484L96.0181 51.8444H97.6981L100.002 58.1804L102.322 51.8444H104.098ZM108.439 60.5004C107.575 60.5004 106.796 60.3138 106.103 59.9404C105.41 59.5671 104.866 59.0498 104.471 58.3884C104.087 57.7164 103.895 56.9591 103.895 56.1164C103.895 55.2738 104.087 54.5218 104.471 53.8604C104.866 53.1991 105.41 52.6818 106.103 52.3084C106.796 51.9351 107.575 51.7484 108.439 51.7484C109.314 51.7484 110.098 51.9351 110.791 52.3084C111.484 52.6818 112.023 53.1991 112.407 53.8604C112.802 54.5218 112.999 55.2738 112.999 56.1164C112.999 56.9591 112.802 57.7164 112.407 58.3884C112.023 59.0498 111.484 59.5671 110.791 59.9404C110.098 60.3138 109.314 60.5004 108.439 60.5004ZM108.439 58.7884C109.175 58.7884 109.783 58.5431 110.263 58.0524C110.743 57.5618 110.983 56.9164 110.983 56.1164C110.983 55.3164 110.743 54.6711 110.263 54.1804C109.783 53.6898 109.175 53.4444 108.439 53.4444C107.703 53.4444 107.095 53.6898 106.615 54.1804C106.146 54.6711 105.911 55.3164 105.911 56.1164C105.911 56.9164 106.146 57.5618 106.615 58.0524C107.095 58.5431 107.703 58.7884 108.439 58.7884ZM116.175 53.0924C116.751 52.1964 117.765 51.7484 119.215 51.7484V53.6524C119.045 53.6204 118.89 53.6044 118.751 53.6044C117.973 53.6044 117.365 53.8338 116.927 54.2924C116.49 54.7404 116.271 55.3911 116.271 56.2444V60.3884H114.271V51.8444H116.175V53.0924ZM128.562 48.5164V60.3884H126.642V59.2844C126.311 59.6898 125.901 59.9938 125.41 60.1964C124.93 60.3991 124.397 60.5004 123.81 60.5004C122.989 60.5004 122.247 60.3191 121.586 59.9564C120.935 59.5938 120.423 59.0818 120.05 58.4204C119.677 57.7484 119.49 56.9804 119.49 56.1164C119.49 55.2524 119.677 54.4898 120.05 53.8284C120.423 53.1671 120.935 52.6551 121.586 52.2924C122.247 51.9298 122.989 51.7484 123.81 51.7484C124.375 51.7484 124.893 51.8444 125.362 52.0364C125.831 52.2284 126.231 52.5164 126.562 52.9004V48.5164H128.562ZM124.05 58.7884C124.53 58.7884 124.962 58.6818 125.346 58.4684C125.73 58.2444 126.034 57.9298 126.258 57.5244C126.482 57.1191 126.594 56.6498 126.594 56.1164C126.594 55.5831 126.482 55.1138 126.258 54.7084C126.034 54.3031 125.73 53.9938 125.346 53.7804C124.962 53.5564 124.53 53.4444 124.05 53.4444C123.57 53.4444 123.138 53.5564 122.754 53.7804C122.37 53.9938 122.066 54.3031 121.842 54.7084C121.618 55.1138 121.506 55.5831 121.506 56.1164C121.506 56.6498 121.618 57.1191 121.842 57.5244C122.066 57.9298 122.37 58.2444 122.754 58.4684C123.138 58.6818 123.57 58.7884 124.05 58.7884ZM133.178 60.5004C132.485 60.5004 131.808 60.4098 131.146 60.2284C130.485 60.0471 129.957 59.8178 129.562 59.5404L130.33 58.0204C130.714 58.2764 131.173 58.4844 131.706 58.6444C132.25 58.7938 132.784 58.8684 133.306 58.8684C134.501 58.8684 135.098 58.5538 135.098 57.9244C135.098 57.6258 134.944 57.4178 134.634 57.3004C134.336 57.1831 133.85 57.0711 133.178 56.9644C132.474 56.8578 131.898 56.7351 131.45 56.5964C131.013 56.4578 130.629 56.2178 130.298 55.8764C129.978 55.5244 129.818 55.0391 129.818 54.4204C129.818 53.6098 130.154 52.9644 130.826 52.4844C131.509 51.9938 132.426 51.7484 133.578 51.7484C134.165 51.7484 134.752 51.8178 135.338 51.9564C135.925 52.0844 136.405 52.2604 136.778 52.4844L136.01 54.0044C135.285 53.5778 134.469 53.3644 133.562 53.3644C132.976 53.3644 132.528 53.4551 132.218 53.6364C131.92 53.8071 131.77 54.0364 131.77 54.3244C131.77 54.6444 131.93 54.8738 132.25 55.0124C132.581 55.1404 133.088 55.2631 133.77 55.3804C134.453 55.4871 135.013 55.6098 135.45 55.7484C135.888 55.8871 136.261 56.1218 136.57 56.4524C136.89 56.7831 137.05 57.2524 137.05 57.8604C137.05 58.6604 136.704 59.3004 136.01 59.7804C135.317 60.2604 134.373 60.5004 133.178 60.5004Z" fill="#585858"/>
</svg>
