<svg width="198" height="40" viewBox="0 0 198 40" fill="none" xmlns="http://www.w3.org/2000/svg">
<rect x="0.0476074" width="41" height="40" rx="20" fill="#C3DCE3"/>
<path d="M23.1266 23.6H17.9266L16.9346 26H14.2786L19.2706 14.8H21.8306L26.8386 26H24.1186L23.1266 23.6ZM22.3106 21.632L20.5346 17.344L18.7586 21.632H22.3106Z" fill="#2B788B"/>
<path d="M59.8156 23.408H54.2156L53.1116 26H50.9676L56.0076 14.8H58.0556L63.1116 26H60.9356L59.8156 23.408ZM59.1276 21.776L57.0156 16.88L54.9196 21.776H59.1276ZM63.704 14.128H65.704V26H63.704V14.128ZM75.721 21.776C75.721 21.9147 75.7103 22.112 75.689 22.368H68.985C69.1023 22.9973 69.4063 23.4987 69.897 23.872C70.3983 24.2347 71.017 24.416 71.753 24.416C72.6916 24.416 73.465 24.1067 74.073 23.488L75.145 24.72C74.761 25.1787 74.2756 25.5253 73.689 25.76C73.1023 25.9947 72.441 26.112 71.705 26.112C70.7663 26.112 69.9396 25.9253 69.225 25.552C68.5103 25.1787 67.9556 24.6613 67.561 24C67.177 23.328 66.985 22.5707 66.985 21.728C66.985 20.896 67.1716 20.1493 67.545 19.488C67.929 18.816 68.457 18.2933 69.129 17.92C69.801 17.5467 70.5583 17.36 71.401 17.36C72.233 17.36 72.9743 17.5467 73.625 17.92C74.2863 18.2827 74.7983 18.8 75.161 19.472C75.5343 20.1333 75.721 20.9013 75.721 21.776ZM71.401 18.96C70.761 18.96 70.217 19.152 69.769 19.536C69.3316 19.9093 69.065 20.4107 68.969 21.04H73.817C73.7316 20.4213 73.4703 19.92 73.033 19.536C72.5956 19.152 72.0516 18.96 71.401 18.96ZM82.2077 26L80.0157 23.04L77.8077 26H75.5997L78.9277 21.664L75.7437 17.456H77.9677L80.0637 20.256L82.1597 17.456H84.3197L81.1197 21.632L84.4637 26H82.2077Z" fill="#757575"/>
<path d="M120.056 26.192C119.17 26.192 118.312 26.0747 117.48 25.84C116.658 25.5947 115.997 25.28 115.496 24.896L116.376 22.944C116.856 23.296 117.426 23.5787 118.088 23.792C118.749 24.0053 119.41 24.112 120.072 24.112C120.808 24.112 121.352 24.0053 121.704 23.792C122.056 23.568 122.232 23.2747 122.232 22.912C122.232 22.6453 122.125 22.4267 121.912 22.256C121.709 22.0747 121.442 21.9307 121.112 21.824C120.792 21.7173 120.354 21.6 119.8 21.472C118.946 21.2693 118.248 21.0667 117.704 20.864C117.16 20.6613 116.69 20.336 116.296 19.888C115.912 19.44 115.72 18.8427 115.72 18.096C115.72 17.4453 115.896 16.8587 116.248 16.336C116.6 15.8027 117.128 15.3813 117.832 15.072C118.546 14.7627 119.416 14.608 120.44 14.608C121.154 14.608 121.853 14.6933 122.536 14.864C123.218 15.0347 123.816 15.28 124.328 15.6L123.528 17.568C122.493 16.9813 121.458 16.688 120.424 16.688C119.698 16.688 119.16 16.8053 118.808 17.04C118.466 17.2747 118.296 17.584 118.296 17.968C118.296 18.352 118.493 18.64 118.888 18.832C119.293 19.0133 119.906 19.1947 120.728 19.376C121.581 19.5787 122.28 19.7813 122.824 19.984C123.368 20.1867 123.832 20.5067 124.216 20.944C124.61 21.3813 124.808 21.9733 124.808 22.72C124.808 23.36 124.626 23.9467 124.264 24.48C123.912 25.0027 123.378 25.4187 122.664 25.728C121.949 26.0373 121.08 26.192 120.056 26.192ZM125.763 17.392H128.259V26H125.763V17.392ZM127.011 16.192C126.552 16.192 126.179 16.0587 125.891 15.792C125.603 15.5253 125.459 15.1947 125.459 14.8C125.459 14.4053 125.603 14.0747 125.891 13.808C126.179 13.5413 126.552 13.408 127.011 13.408C127.469 13.408 127.843 13.536 128.131 13.792C128.419 14.048 128.563 14.368 128.563 14.752C128.563 15.168 128.419 15.5147 128.131 15.792C127.843 16.0587 127.469 16.192 127.011 16.192ZM138.815 17.392V24.56C138.815 26.1387 138.405 27.312 137.583 28.08C136.762 28.848 135.562 29.232 133.983 29.232C133.151 29.232 132.362 29.1307 131.615 28.928C130.869 28.7253 130.25 28.432 129.759 28.048L130.751 26.256C131.114 26.5547 131.573 26.7893 132.127 26.96C132.682 27.1413 133.237 27.232 133.791 27.232C134.655 27.232 135.29 27.0347 135.695 26.64C136.111 26.256 136.319 25.6693 136.319 24.88V24.512C135.669 25.2267 134.762 25.584 133.599 25.584C132.81 25.584 132.085 25.4133 131.423 25.072C130.773 24.72 130.255 24.2293 129.871 23.6C129.487 22.9707 129.295 22.2453 129.295 21.424C129.295 20.6027 129.487 19.8773 129.871 19.248C130.255 18.6187 130.773 18.1333 131.423 17.792C132.085 17.44 132.81 17.264 133.599 17.264C134.847 17.264 135.797 17.6747 136.447 18.496V17.392H138.815ZM134.095 23.536C134.757 23.536 135.295 23.344 135.711 22.96C136.138 22.5653 136.351 22.0533 136.351 21.424C136.351 20.7947 136.138 20.288 135.711 19.904C135.295 19.5093 134.757 19.312 134.095 19.312C133.434 19.312 132.89 19.5093 132.463 19.904C132.037 20.288 131.823 20.7947 131.823 21.424C131.823 22.0533 132.037 22.5653 132.463 22.96C132.89 23.344 133.434 23.536 134.095 23.536ZM145.73 17.264C146.797 17.264 147.656 17.584 148.306 18.224C148.968 18.864 149.298 19.8133 149.298 21.072V26H146.802V21.456C146.802 20.7733 146.653 20.2667 146.354 19.936C146.056 19.5947 145.624 19.424 145.058 19.424C144.429 19.424 143.928 19.6213 143.554 20.016C143.181 20.4 142.994 20.976 142.994 21.744V26H140.498V17.392H142.882V18.4C143.213 18.0373 143.624 17.76 144.114 17.568C144.605 17.3653 145.144 17.264 145.73 17.264ZM160.412 26.192C159.249 26.192 158.199 25.9413 157.26 25.44C156.332 24.9387 155.601 24.2507 155.068 23.376C154.545 22.4907 154.284 21.4987 154.284 20.4C154.284 19.3013 154.545 18.3147 155.068 17.44C155.601 16.5547 156.332 15.8613 157.26 15.36C158.199 14.8587 159.249 14.608 160.412 14.608C161.575 14.608 162.62 14.8587 163.548 15.36C164.476 15.8613 165.207 16.5547 165.74 17.44C166.273 18.3147 166.54 19.3013 166.54 20.4C166.54 21.4987 166.273 22.4907 165.74 23.376C165.207 24.2507 164.476 24.9387 163.548 25.44C162.62 25.9413 161.575 26.192 160.412 26.192ZM160.412 23.984C161.073 23.984 161.671 23.8347 162.204 23.536C162.737 23.2267 163.153 22.8 163.452 22.256C163.761 21.712 163.916 21.0933 163.916 20.4C163.916 19.7067 163.761 19.088 163.452 18.544C163.153 18 162.737 17.5787 162.204 17.28C161.671 16.9707 161.073 16.816 160.412 16.816C159.751 16.816 159.153 16.9707 158.62 17.28C158.087 17.5787 157.665 18 157.356 18.544C157.057 19.088 156.908 19.7067 156.908 20.4C156.908 21.0933 157.057 21.712 157.356 22.256C157.665 22.8 158.087 23.2267 158.62 23.536C159.153 23.8347 159.751 23.984 160.412 23.984ZM176.344 17.392V26H173.976V24.976C173.645 25.3493 173.251 25.6373 172.792 25.84C172.333 26.032 171.837 26.128 171.304 26.128C170.173 26.128 169.277 25.8027 168.616 25.152C167.955 24.5013 167.624 23.536 167.624 22.256V17.392H170.12V21.888C170.12 23.2747 170.701 23.968 171.864 23.968C172.461 23.968 172.941 23.776 173.304 23.392C173.667 22.9973 173.848 22.416 173.848 21.648V17.392H176.344ZM183.568 25.584C183.323 25.7653 183.019 25.904 182.656 26C182.304 26.0853 181.931 26.128 181.536 26.128C180.512 26.128 179.718 25.8667 179.152 25.344C178.598 24.8213 178.32 24.0533 178.32 23.04V19.504H176.992V17.584H178.32V15.488H180.816V17.584H182.96V19.504H180.816V23.008C180.816 23.3707 180.907 23.6533 181.088 23.856C181.28 24.048 181.547 24.144 181.888 24.144C182.283 24.144 182.619 24.0373 182.896 23.824L183.568 25.584ZM195.485 21.584L193.117 25.216H190.957L192.621 22.448H187.869V20.72H192.605L190.957 17.984H193.117L195.485 21.584Z" fill="black"/>
</svg>
