<svg width="230" height="54" viewBox="0 0 230 54" fill="none" xmlns="http://www.w3.org/2000/svg">
<g clip-path="url(#clip0_1_30)">
<path fill-rule="evenodd" clip-rule="evenodd" d="M38.3928 19.1156C38.4073 19.115 38.4218 19.1147 38.4363 19.1147H57.5638C57.5783 19.1147 57.5928 19.115 57.6073 19.1156C58.4348 19.1496 59.2201 19.4902 59.8104 20.071C60.3855 20.6369 60.7355 21.3915 60.797 22.1945L63.8211 40.1005C63.8227 40.11 63.8242 40.1195 63.8255 40.129C63.8911 40.594 63.8593 41.0675 63.7321 41.5195C63.6048 41.9716 63.385 42.3922 63.0865 42.7547C62.788 43.1172 62.4173 43.4136 61.9981 43.6252C61.5789 43.8367 61.1202 43.9588 60.6513 43.9836C60.6326 43.9846 60.6139 43.9851 60.5952 43.9851H35.4049C35.3862 43.9851 35.3675 43.9846 35.3488 43.9836C34.8799 43.9588 34.4212 43.8367 34.002 43.6252C33.5828 43.4136 33.2121 43.1172 32.9136 42.7547C32.6151 42.3922 32.3953 41.9716 32.268 41.5195C32.1408 41.0675 32.109 40.594 32.1746 40.129C32.1759 40.1195 32.1774 40.11 32.179 40.1005L35.2031 22.1945C35.2646 21.3915 35.6146 20.6369 36.1897 20.071C36.78 19.4902 37.5653 19.1496 38.3928 19.1156ZM38.4615 21.2378C38.1674 21.2544 37.8891 21.3774 37.6788 21.5843C37.4641 21.7956 37.3357 22.0791 37.3185 22.3798C37.3162 22.4187 37.3119 22.4574 37.3054 22.4959L34.2752 40.4377C34.2529 40.6072 34.2653 40.7796 34.3117 40.9443C34.3592 41.1129 34.4412 41.2698 34.5525 41.405C34.6639 41.5403 34.8021 41.6509 34.9585 41.7298C35.1078 41.8051 35.2705 41.85 35.4372 41.862H60.5629C60.7296 41.85 60.8923 41.8051 61.0416 41.7298C61.198 41.6509 61.3362 41.5403 61.4476 41.405C61.5589 41.2698 61.641 41.1129 61.6884 40.9443C61.7348 40.7796 61.7472 40.6072 61.7249 40.4377L58.6947 22.4959C58.6882 22.4574 58.6839 22.4187 58.6816 22.3798C58.6644 22.0791 58.536 21.7956 58.3213 21.5843C58.111 21.3774 57.8327 21.2544 57.5386 21.2378H38.4615Z" fill="#090909"/>
<path fill-rule="evenodd" clip-rule="evenodd" d="M48.0032 10.0156C49.5744 10.0203 51.0951 10.5715 52.3043 11.5747C53.5136 12.5779 54.3362 13.9706 54.631 15.5139C54.741 16.0898 54.3633 16.6458 53.7874 16.7557C53.2116 16.8657 52.6556 16.4881 52.5456 15.9122C52.3433 14.853 51.7788 13.8972 50.9488 13.2087C50.1197 12.5209 49.0773 12.1426 48.0001 12.1387C46.9268 12.1427 45.888 12.518 45.0601 13.2011C44.2313 13.8849 43.6652 14.8348 43.458 15.889C43.3449 16.4643 42.7869 16.8389 42.2116 16.7258C41.6363 16.6128 41.2617 16.0548 41.3747 15.4795C41.6767 13.9436 42.5015 12.5598 43.7089 11.5635C44.9163 10.5673 46.4316 10.0203 47.9969 10.0156L48 11.0772L48.0032 10.0156Z" fill="#090909"/>
</g>
<rect x="24" y="30" width="22" height="22" fill="#FF9C08"/>
<path d="M35.5038 44.144C34.7598 44.144 34.1158 43.964 33.5718 43.604C33.0358 43.236 32.6238 42.728 32.3358 42.08C32.0478 41.424 31.9038 40.664 31.9038 39.8C31.9038 38.936 32.0478 38.18 32.3358 37.532C32.6238 36.876 33.0358 36.368 33.5718 36.008C34.1158 35.64 34.7598 35.456 35.5038 35.456C36.2478 35.456 36.8878 35.64 37.4238 36.008C37.9598 36.368 38.3718 36.876 38.6598 37.532C38.9478 38.18 39.0918 38.936 39.0918 39.8C39.0918 40.664 38.9478 41.424 38.6598 42.08C38.3718 42.728 37.9598 43.236 37.4238 43.604C36.8878 43.964 36.2478 44.144 35.5038 44.144ZM35.5038 43.256C35.9918 43.256 36.4278 43.12 36.8118 42.848C37.2038 42.568 37.5078 42.172 37.7238 41.66C37.9478 41.14 38.0598 40.52 38.0598 39.8C38.0598 39.08 37.9478 38.464 37.7238 37.952C37.5078 37.44 37.2038 37.048 36.8118 36.776C36.4278 36.496 35.9918 36.356 35.5038 36.356C35.0078 36.356 34.5678 36.496 34.1838 36.776C33.7998 37.048 33.4958 37.44 33.2718 37.952C33.0478 38.464 32.9358 39.08 32.9358 39.8C32.9358 40.52 33.0478 41.14 33.2718 41.66C33.4958 42.172 33.7998 42.568 34.1838 42.848C34.5678 43.12 35.0078 43.256 35.5038 43.256Z" fill="white"/>
<path d="M88 10C88 4.47715 92.4772 0 98 0H220C225.523 0 230 4.47715 230 10V44C230 49.5228 225.523 54 220 54H98C92.4772 54 88 49.5228 88 44V10Z" fill="#FF9C08"/>
<path d="M114.174 30V18.8H117.998C119.31 18.8 120.387 19.0347 121.23 19.504C122.083 19.9627 122.713 20.6133 123.118 21.456C123.534 22.288 123.742 23.2693 123.742 24.4C123.742 25.5307 123.534 26.5173 123.118 27.36C122.713 28.192 122.083 28.8427 121.23 29.312C120.387 29.7707 119.31 30 117.998 30H114.174ZM116.222 28.24H117.902C118.841 28.24 119.582 28.0907 120.126 27.792C120.67 27.4827 121.059 27.0453 121.294 26.48C121.529 25.904 121.646 25.2107 121.646 24.4C121.646 23.6 121.529 22.912 121.294 22.336C121.059 21.76 120.67 21.3173 120.126 21.008C119.582 20.6987 118.841 20.544 117.902 20.544H116.222V28.24ZM129.309 30.192C128.541 30.192 127.848 30.016 127.229 29.664C126.621 29.312 126.136 28.8267 125.773 28.208C125.421 27.5787 125.245 26.8533 125.245 26.032C125.245 25.2107 125.426 24.4907 125.789 23.872C126.152 23.2427 126.637 22.752 127.245 22.4C127.864 22.048 128.557 21.872 129.325 21.872C130.082 21.872 130.765 22.048 131.373 22.4C131.992 22.752 132.477 23.2427 132.829 23.872C133.192 24.4907 133.373 25.2107 133.373 26.032C133.373 26.8533 133.192 27.5787 132.829 28.208C132.477 28.8267 131.992 29.312 131.373 29.664C130.754 30.016 130.066 30.192 129.309 30.192ZM129.309 28.416C129.842 28.416 130.306 28.2187 130.701 27.824C131.096 27.4187 131.293 26.8213 131.293 26.032C131.293 25.2427 131.096 24.6507 130.701 24.256C130.306 23.8507 129.848 23.648 129.325 23.648C128.781 23.648 128.312 23.8507 127.917 24.256C127.533 24.6507 127.341 25.2427 127.341 26.032C127.341 26.8213 127.533 27.4187 127.917 27.824C128.312 28.2187 128.776 28.416 129.309 28.416ZM135.204 30V22.064H137.012L137.172 23.408C137.417 22.9387 137.769 22.5653 138.228 22.288C138.697 22.0107 139.247 21.872 139.876 21.872C140.857 21.872 141.62 22.1813 142.164 22.8C142.708 23.4187 142.98 24.3253 142.98 25.52V30H140.932V25.712C140.932 25.0293 140.793 24.5067 140.516 24.144C140.239 23.7813 139.807 23.6 139.22 23.6C138.644 23.6 138.169 23.8027 137.796 24.208C137.433 24.6133 137.252 25.1787 137.252 25.904V30H135.204ZM147.674 30.192C146.992 30.192 146.432 30.0853 145.994 29.872C145.557 29.648 145.232 29.3547 145.018 28.992C144.805 28.6293 144.698 28.2293 144.698 27.792C144.698 27.056 144.986 26.4587 145.562 26C146.138 25.5413 147.002 25.312 148.154 25.312H150.17V25.12C150.17 24.576 150.016 24.176 149.706 23.92C149.397 23.664 149.013 23.536 148.554 23.536C148.138 23.536 147.776 23.6373 147.466 23.84C147.157 24.032 146.965 24.32 146.89 24.704H144.89C144.944 24.128 145.136 23.6267 145.466 23.2C145.808 22.7733 146.245 22.448 146.778 22.224C147.312 21.9893 147.909 21.872 148.57 21.872C149.701 21.872 150.592 22.1547 151.242 22.72C151.893 23.2853 152.218 24.0853 152.218 25.12V30H150.474L150.282 28.72C150.048 29.1467 149.717 29.4987 149.29 29.776C148.874 30.0533 148.336 30.192 147.674 30.192ZM148.138 28.592C148.725 28.592 149.178 28.4 149.498 28.016C149.829 27.632 150.037 27.1573 150.122 26.592H148.378C147.834 26.592 147.445 26.6933 147.21 26.896C146.976 27.088 146.858 27.328 146.858 27.616C146.858 27.9253 146.976 28.1653 147.21 28.336C147.445 28.5067 147.754 28.592 148.138 28.592ZM157.599 30C156.767 30 156.101 29.7973 155.599 29.392C155.098 28.9867 154.847 28.2667 154.847 27.232V23.776H153.487V22.064H154.847L155.087 19.936H156.895V22.064H159.039V23.776H156.895V27.248C156.895 27.632 156.975 27.8987 157.135 28.048C157.306 28.1867 157.594 28.256 157.999 28.256H158.991V30H157.599ZM164.451 30.192C163.651 30.192 162.941 30.0213 162.323 29.68C161.704 29.3387 161.219 28.8587 160.867 28.24C160.515 27.6213 160.339 26.9067 160.339 26.096C160.339 25.2747 160.509 24.544 160.851 23.904C161.203 23.264 161.683 22.768 162.291 22.416C162.909 22.0533 163.635 21.872 164.467 21.872C165.245 21.872 165.933 22.0427 166.531 22.384C167.128 22.7253 167.592 23.1947 167.923 23.792C168.264 24.3787 168.435 25.0347 168.435 25.76C168.435 25.8773 168.429 26 168.419 26.128C168.419 26.256 168.413 26.3893 168.403 26.528H162.371C162.413 27.1467 162.627 27.632 163.011 27.984C163.405 28.336 163.88 28.512 164.435 28.512C164.851 28.512 165.197 28.4213 165.475 28.24C165.763 28.048 165.976 27.8027 166.115 27.504H168.195C168.045 28.0053 167.795 28.464 167.443 28.88C167.101 29.2853 166.675 29.6053 166.163 29.84C165.661 30.0747 165.091 30.192 164.451 30.192ZM164.467 23.536C163.965 23.536 163.523 23.68 163.139 23.968C162.755 24.2453 162.509 24.672 162.403 25.248H166.355C166.323 24.7253 166.131 24.3093 165.779 24C165.427 23.6907 164.989 23.536 164.467 23.536ZM173.97 30V22.064H175.778L175.938 23.408C176.183 22.9387 176.535 22.5653 176.994 22.288C177.463 22.0107 178.012 21.872 178.642 21.872C179.623 21.872 180.386 22.1813 180.93 22.8C181.474 23.4187 181.746 24.3253 181.746 25.52V30H179.698V25.712C179.698 25.0293 179.559 24.5067 179.282 24.144C179.004 23.7813 178.572 23.6 177.986 23.6C177.41 23.6 176.935 23.8027 176.562 24.208C176.199 24.6133 176.018 25.1787 176.018 25.904V30H173.97ZM187.512 30.192C186.744 30.192 186.051 30.016 185.432 29.664C184.824 29.312 184.339 28.8267 183.976 28.208C183.624 27.5787 183.448 26.8533 183.448 26.032C183.448 25.2107 183.629 24.4907 183.992 23.872C184.355 23.2427 184.84 22.752 185.448 22.4C186.067 22.048 186.76 21.872 187.528 21.872C188.285 21.872 188.968 22.048 189.576 22.4C190.195 22.752 190.68 23.2427 191.032 23.872C191.395 24.4907 191.576 25.2107 191.576 26.032C191.576 26.8533 191.395 27.5787 191.032 28.208C190.68 28.8267 190.195 29.312 189.576 29.664C188.957 30.016 188.269 30.192 187.512 30.192ZM187.512 28.416C188.045 28.416 188.509 28.2187 188.904 27.824C189.299 27.4187 189.496 26.8213 189.496 26.032C189.496 25.2427 189.299 24.6507 188.904 24.256C188.509 23.8507 188.051 23.648 187.528 23.648C186.984 23.648 186.515 23.8507 186.12 24.256C185.736 24.6507 185.544 25.2427 185.544 26.032C185.544 26.8213 185.736 27.4187 186.12 27.824C186.515 28.2187 186.979 28.416 187.512 28.416ZM194.678 30L192.358 22.064H194.39L195.766 27.776L197.366 22.064H199.638L201.238 27.776L202.63 22.064H204.662L202.326 30H200.198L198.502 24.064L196.806 30H194.678Z" fill="#090909"/>
<defs>
<clipPath id="clip0_1_30">
<rect width="32" height="34" fill="white" transform="translate(32 10)"/>
</clipPath>
</defs>
</svg>
