<svg width="20" height="21" viewBox="0 0 20 21" fill="none" xmlns="http://www.w3.org/2000/svg">
<path fill-rule="evenodd" clip-rule="evenodd" d="M11.7677 10.0274H14.0742C14.424 10.0274 14.6988 9.73829 14.6988 9.38961C14.6988 9.03243 14.424 8.75179 14.0742 8.75179H11.7677C11.418 8.75179 11.1432 9.03243 11.1432 9.38961C11.1432 9.73829 11.418 10.0274 11.7677 10.0274ZM16.8138 5.60604C17.3217 5.60604 17.6548 5.78463 17.9879 6.17582C18.3209 6.56702 18.3792 7.1283 18.3043 7.6377L17.5132 13.2165C17.3633 14.2889 16.464 15.0789 15.4065 15.0789H6.32195C5.21448 15.0789 4.29853 14.2123 4.20693 13.0898L3.44086 3.8193L2.18351 3.59819C1.85043 3.53866 1.61728 3.20699 1.67557 2.86682C1.73386 2.519 2.05861 2.28854 2.40001 2.34041L4.38596 2.64571C4.66907 2.69759 4.87724 2.93486 4.90222 3.224L5.06043 5.12895C5.08541 5.40194 5.30191 5.60604 5.56837 5.60604H16.8138ZM6.18855 16.423C5.4891 16.423 4.92287 17.0013 4.92287 17.7157C4.92287 18.4215 5.4891 18.9998 6.18855 18.9998C6.87968 18.9998 7.44591 18.4215 7.44591 17.7157C7.44591 17.0013 6.87968 16.423 6.18855 16.423ZM15.5563 16.423C14.8568 16.423 14.2906 17.0013 14.2906 17.7157C14.2906 18.4215 14.8568 18.9998 15.5563 18.9998C16.2474 18.9998 16.8136 18.4215 16.8136 17.7157C16.8136 17.0013 16.2474 16.423 15.5563 16.423Z" fill="#2076FF"/>
</svg>
