<svg width="377" height="66" viewBox="0 0 377 66" fill="none" xmlns="http://www.w3.org/2000/svg">
<rect x="0.791016" width="376" height="66" rx="33" fill="#FAFAFA"/>
<circle cx="342.791" cy="33" r="28" fill="#7EB693"/>
<path d="M354.469 40.8921L349.709 36.1315C350.855 34.6057 351.473 32.7485 351.471 30.8402C351.471 25.9657 347.506 22 342.631 22C337.757 22 333.791 25.9657 333.791 30.8402C333.791 35.7146 337.757 39.6803 342.631 39.6803C344.539 39.6824 346.397 39.0637 347.923 37.9175L352.683 42.6781C352.924 42.8936 353.238 43.0085 353.561 42.9995C353.885 42.9905 354.192 42.8581 354.421 42.6295C354.649 42.401 354.781 42.0936 354.791 41.7705C354.8 41.4474 354.685 41.1331 354.469 40.8921ZM336.317 30.8402C336.317 29.5913 336.687 28.3705 337.381 27.3321C338.075 26.2937 339.061 25.4843 340.215 25.0064C341.369 24.5285 342.638 24.4034 343.863 24.6471C345.088 24.8907 346.213 25.4921 347.096 26.3752C347.979 27.2583 348.581 28.3834 348.824 29.6083C349.068 30.8332 348.943 32.1028 348.465 33.2566C347.987 34.4104 347.178 35.3966 346.139 36.0904C345.101 36.7842 343.88 37.1546 342.631 37.1546C340.957 37.1526 339.352 36.4866 338.168 35.3029C336.985 34.1192 336.319 32.5142 336.317 30.8402Z" fill="#FAFAFA"/>
</svg>
